G75*
%MOIN*%
%OFA0B0*%
%FSLAX25Y25*%
%IPPOS*%
%LPD*%
%AMOC8*
5,1,8,0,0,1.08239X$1,22.5*
%
%ADD10C,0.00300*%
%ADD11C,0.02778*%
%ADD12C,0.01200*%
D10*
X0004064Y0003800D02*
X0004064Y0013800D01*
X0014064Y0013800D01*
X0014064Y0003800D01*
X0004064Y0003800D01*
X0004064Y0003987D02*
X0014064Y0003987D01*
X0014064Y0004285D02*
X0004064Y0004285D01*
X0004064Y0004584D02*
X0014064Y0004584D01*
X0014064Y0004882D02*
X0004064Y0004882D01*
X0004064Y0005181D02*
X0014064Y0005181D01*
X0014064Y0005479D02*
X0004064Y0005479D01*
X0004064Y0005778D02*
X0014064Y0005778D01*
X0014064Y0006076D02*
X0004064Y0006076D01*
X0004064Y0006375D02*
X0014064Y0006375D01*
X0014064Y0006673D02*
X0004064Y0006673D01*
X0004064Y0006972D02*
X0014064Y0006972D01*
X0014064Y0007270D02*
X0004064Y0007270D01*
X0004064Y0007569D02*
X0014064Y0007569D01*
X0014064Y0007867D02*
X0004064Y0007867D01*
X0004064Y0008166D02*
X0014064Y0008166D01*
X0014064Y0008464D02*
X0004064Y0008464D01*
X0004064Y0008763D02*
X0014064Y0008763D01*
X0014064Y0009061D02*
X0004064Y0009061D01*
X0004064Y0009360D02*
X0014064Y0009360D01*
X0014064Y0009658D02*
X0004064Y0009658D01*
X0004064Y0009957D02*
X0014064Y0009957D01*
X0014064Y0010255D02*
X0004064Y0010255D01*
X0004064Y0010554D02*
X0014064Y0010554D01*
X0014064Y0010852D02*
X0004064Y0010852D01*
X0004064Y0011151D02*
X0014064Y0011151D01*
X0014064Y0011449D02*
X0004064Y0011449D01*
X0004064Y0011748D02*
X0014064Y0011748D01*
X0014064Y0012046D02*
X0004064Y0012046D01*
X0004064Y0012345D02*
X0014064Y0012345D01*
X0014064Y0012643D02*
X0004064Y0012643D01*
X0004064Y0012942D02*
X0014064Y0012942D01*
X0014064Y0013240D02*
X0004064Y0013240D01*
X0004064Y0013539D02*
X0014064Y0013539D01*
X0014964Y0013539D02*
X0035664Y0013539D01*
X0035664Y0013427D02*
X0035664Y0004173D01*
X0035664Y0003427D01*
X0036141Y0002950D01*
X0014487Y0002950D01*
X0014964Y0003427D01*
X0014964Y0014173D01*
X0014437Y0014700D01*
X0003691Y0014700D01*
X0003214Y0014223D01*
X0003214Y0062150D01*
X0059914Y0062150D01*
X0059914Y0002950D01*
X0046987Y0002950D01*
X0047464Y0003427D01*
X0047464Y0014173D01*
X0046937Y0014700D01*
X0036191Y0014700D01*
X0035664Y0014173D01*
X0035664Y0013427D01*
X0035664Y0013240D02*
X0014964Y0013240D01*
X0014964Y0012942D02*
X0035664Y0012942D01*
X0035664Y0012643D02*
X0014964Y0012643D01*
X0014964Y0012345D02*
X0035664Y0012345D01*
X0035664Y0012046D02*
X0014964Y0012046D01*
X0014964Y0011748D02*
X0035664Y0011748D01*
X0035664Y0011449D02*
X0014964Y0011449D01*
X0014964Y0011151D02*
X0035664Y0011151D01*
X0035664Y0010852D02*
X0014964Y0010852D01*
X0014964Y0010554D02*
X0035664Y0010554D01*
X0035664Y0010255D02*
X0014964Y0010255D01*
X0014964Y0009957D02*
X0035664Y0009957D01*
X0035664Y0009658D02*
X0014964Y0009658D01*
X0014964Y0009360D02*
X0035664Y0009360D01*
X0035664Y0009061D02*
X0014964Y0009061D01*
X0014964Y0008763D02*
X0035664Y0008763D01*
X0035664Y0008464D02*
X0014964Y0008464D01*
X0014964Y0008166D02*
X0035664Y0008166D01*
X0035664Y0007867D02*
X0014964Y0007867D01*
X0014964Y0007569D02*
X0035664Y0007569D01*
X0035664Y0007270D02*
X0014964Y0007270D01*
X0014964Y0006972D02*
X0035664Y0006972D01*
X0035664Y0006673D02*
X0014964Y0006673D01*
X0014964Y0006375D02*
X0035664Y0006375D01*
X0035664Y0006076D02*
X0014964Y0006076D01*
X0014964Y0005778D02*
X0035664Y0005778D01*
X0035664Y0005479D02*
X0014964Y0005479D01*
X0014964Y0005181D02*
X0035664Y0005181D01*
X0035664Y0004882D02*
X0014964Y0004882D01*
X0014964Y0004584D02*
X0035664Y0004584D01*
X0035664Y0004285D02*
X0014964Y0004285D01*
X0014964Y0003987D02*
X0035664Y0003987D01*
X0035664Y0003688D02*
X0014964Y0003688D01*
X0014926Y0003390D02*
X0035702Y0003390D01*
X0036000Y0003091D02*
X0014628Y0003091D01*
X0014964Y0013837D02*
X0035664Y0013837D01*
X0035664Y0014136D02*
X0014964Y0014136D01*
X0014702Y0014434D02*
X0035926Y0014434D01*
X0036564Y0013800D02*
X0046564Y0013800D01*
X0046564Y0003800D01*
X0036564Y0003800D01*
X0036564Y0013800D01*
X0036564Y0013539D02*
X0046564Y0013539D01*
X0046564Y0013240D02*
X0036564Y0013240D01*
X0036564Y0012942D02*
X0046564Y0012942D01*
X0046564Y0012643D02*
X0036564Y0012643D01*
X0036564Y0012345D02*
X0046564Y0012345D01*
X0046564Y0012046D02*
X0036564Y0012046D01*
X0036564Y0011748D02*
X0046564Y0011748D01*
X0046564Y0011449D02*
X0036564Y0011449D01*
X0036564Y0011151D02*
X0046564Y0011151D01*
X0046564Y0010852D02*
X0036564Y0010852D01*
X0036564Y0010554D02*
X0046564Y0010554D01*
X0046564Y0010255D02*
X0036564Y0010255D01*
X0036564Y0009957D02*
X0046564Y0009957D01*
X0046564Y0009658D02*
X0036564Y0009658D01*
X0036564Y0009360D02*
X0046564Y0009360D01*
X0046564Y0009061D02*
X0036564Y0009061D01*
X0036564Y0008763D02*
X0046564Y0008763D01*
X0046564Y0008464D02*
X0036564Y0008464D01*
X0036564Y0008166D02*
X0046564Y0008166D01*
X0046564Y0007867D02*
X0036564Y0007867D01*
X0036564Y0007569D02*
X0046564Y0007569D01*
X0046564Y0007270D02*
X0036564Y0007270D01*
X0036564Y0006972D02*
X0046564Y0006972D01*
X0046564Y0006673D02*
X0036564Y0006673D01*
X0036564Y0006375D02*
X0046564Y0006375D01*
X0046564Y0006076D02*
X0036564Y0006076D01*
X0036564Y0005778D02*
X0046564Y0005778D01*
X0046564Y0005479D02*
X0036564Y0005479D01*
X0036564Y0005181D02*
X0046564Y0005181D01*
X0046564Y0004882D02*
X0036564Y0004882D01*
X0036564Y0004584D02*
X0046564Y0004584D01*
X0046564Y0004285D02*
X0036564Y0004285D01*
X0036564Y0003987D02*
X0046564Y0003987D01*
X0047464Y0003987D02*
X0059914Y0003987D01*
X0059914Y0004285D02*
X0047464Y0004285D01*
X0047464Y0004584D02*
X0059914Y0004584D01*
X0059914Y0004882D02*
X0047464Y0004882D01*
X0047464Y0005181D02*
X0059914Y0005181D01*
X0059914Y0005479D02*
X0047464Y0005479D01*
X0047464Y0005778D02*
X0059914Y0005778D01*
X0059914Y0006076D02*
X0047464Y0006076D01*
X0047464Y0006375D02*
X0059914Y0006375D01*
X0059914Y0006673D02*
X0047464Y0006673D01*
X0047464Y0006972D02*
X0059914Y0006972D01*
X0059914Y0007270D02*
X0047464Y0007270D01*
X0047464Y0007569D02*
X0059914Y0007569D01*
X0059914Y0007867D02*
X0047464Y0007867D01*
X0047464Y0008166D02*
X0059914Y0008166D01*
X0059914Y0008464D02*
X0047464Y0008464D01*
X0047464Y0008763D02*
X0059914Y0008763D01*
X0059914Y0009061D02*
X0047464Y0009061D01*
X0047464Y0009360D02*
X0059914Y0009360D01*
X0059914Y0009658D02*
X0047464Y0009658D01*
X0047464Y0009957D02*
X0059914Y0009957D01*
X0059914Y0010255D02*
X0047464Y0010255D01*
X0047464Y0010554D02*
X0059914Y0010554D01*
X0059914Y0010852D02*
X0047464Y0010852D01*
X0047464Y0011151D02*
X0059914Y0011151D01*
X0059914Y0011449D02*
X0047464Y0011449D01*
X0047464Y0011748D02*
X0059914Y0011748D01*
X0059914Y0012046D02*
X0047464Y0012046D01*
X0047464Y0012345D02*
X0059914Y0012345D01*
X0059914Y0012643D02*
X0047464Y0012643D01*
X0047464Y0012942D02*
X0059914Y0012942D01*
X0059914Y0013240D02*
X0047464Y0013240D01*
X0047464Y0013539D02*
X0059914Y0013539D01*
X0059914Y0013837D02*
X0047464Y0013837D01*
X0047464Y0014136D02*
X0059914Y0014136D01*
X0059914Y0014434D02*
X0047202Y0014434D01*
X0047464Y0003688D02*
X0059914Y0003688D01*
X0059914Y0003390D02*
X0047426Y0003390D01*
X0047128Y0003091D02*
X0059914Y0003091D01*
X0059914Y0014733D02*
X0003214Y0014733D01*
X0003214Y0014434D02*
X0003426Y0014434D01*
X0003214Y0015032D02*
X0059914Y0015032D01*
X0059914Y0015330D02*
X0003214Y0015330D01*
X0003214Y0015629D02*
X0059914Y0015629D01*
X0059914Y0015927D02*
X0003214Y0015927D01*
X0003214Y0016226D02*
X0059914Y0016226D01*
X0059914Y0016524D02*
X0003214Y0016524D01*
X0003214Y0016823D02*
X0059914Y0016823D01*
X0059914Y0017121D02*
X0003214Y0017121D01*
X0003214Y0017420D02*
X0059914Y0017420D01*
X0059914Y0017718D02*
X0003214Y0017718D01*
X0003214Y0018017D02*
X0059914Y0018017D01*
X0059914Y0018315D02*
X0003214Y0018315D01*
X0003214Y0018614D02*
X0059914Y0018614D01*
X0059914Y0018912D02*
X0003214Y0018912D01*
X0003214Y0019211D02*
X0059914Y0019211D01*
X0059914Y0019509D02*
X0003214Y0019509D01*
X0003214Y0019808D02*
X0059914Y0019808D01*
X0059914Y0020106D02*
X0003214Y0020106D01*
X0003214Y0020405D02*
X0059914Y0020405D01*
X0059914Y0020703D02*
X0003214Y0020703D01*
X0003214Y0021002D02*
X0059914Y0021002D01*
X0059914Y0021300D02*
X0003214Y0021300D01*
X0003214Y0021599D02*
X0059914Y0021599D01*
X0059914Y0021897D02*
X0003214Y0021897D01*
X0003214Y0022196D02*
X0059914Y0022196D01*
X0059914Y0022494D02*
X0003214Y0022494D01*
X0003214Y0022793D02*
X0059914Y0022793D01*
X0059914Y0023091D02*
X0003214Y0023091D01*
X0003214Y0023390D02*
X0059914Y0023390D01*
X0059914Y0023688D02*
X0003214Y0023688D01*
X0003214Y0023987D02*
X0059914Y0023987D01*
X0059914Y0024285D02*
X0003214Y0024285D01*
X0003214Y0024584D02*
X0059914Y0024584D01*
X0059914Y0024882D02*
X0003214Y0024882D01*
X0003214Y0025181D02*
X0059914Y0025181D01*
X0059914Y0025479D02*
X0003214Y0025479D01*
X0003214Y0025778D02*
X0059914Y0025778D01*
X0059914Y0026076D02*
X0003214Y0026076D01*
X0003214Y0026375D02*
X0059914Y0026375D01*
X0059914Y0026673D02*
X0003214Y0026673D01*
X0003214Y0026972D02*
X0059914Y0026972D01*
X0059914Y0027270D02*
X0003214Y0027270D01*
X0003214Y0027569D02*
X0059914Y0027569D01*
X0059914Y0027868D02*
X0003214Y0027868D01*
X0003214Y0028166D02*
X0059914Y0028166D01*
X0059914Y0028465D02*
X0003214Y0028465D01*
X0003214Y0028763D02*
X0059914Y0028763D01*
X0059914Y0029062D02*
X0003214Y0029062D01*
X0003214Y0029360D02*
X0059914Y0029360D01*
X0059914Y0029659D02*
X0003214Y0029659D01*
X0003214Y0029957D02*
X0059914Y0029957D01*
X0059914Y0030256D02*
X0003214Y0030256D01*
X0003214Y0030554D02*
X0051785Y0030554D01*
X0051928Y0030411D02*
X0053700Y0030411D01*
X0054953Y0031664D01*
X0054953Y0033436D01*
X0054164Y0034225D01*
X0054164Y0039359D01*
X0046203Y0047320D01*
X0046203Y0048436D01*
X0044950Y0049689D01*
X0043178Y0049689D01*
X0041925Y0048436D01*
X0041925Y0046664D01*
X0043178Y0045411D01*
X0044294Y0045411D01*
X0051464Y0038241D01*
X0051464Y0034225D01*
X0050675Y0033436D01*
X0050675Y0031664D01*
X0051928Y0030411D01*
X0051486Y0030853D02*
X0003214Y0030853D01*
X0003214Y0031151D02*
X0051188Y0031151D01*
X0050889Y0031450D02*
X0003214Y0031450D01*
X0003214Y0031748D02*
X0050675Y0031748D01*
X0050675Y0032047D02*
X0003214Y0032047D01*
X0003214Y0032345D02*
X0050675Y0032345D01*
X0050675Y0032644D02*
X0003214Y0032644D01*
X0003214Y0032942D02*
X0050675Y0032942D01*
X0050675Y0033241D02*
X0003214Y0033241D01*
X0003214Y0033539D02*
X0050778Y0033539D01*
X0051077Y0033838D02*
X0003214Y0033838D01*
X0003214Y0034136D02*
X0051375Y0034136D01*
X0051464Y0034435D02*
X0003214Y0034435D01*
X0003214Y0034733D02*
X0051464Y0034733D01*
X0051464Y0035032D02*
X0003214Y0035032D01*
X0003214Y0035330D02*
X0051464Y0035330D01*
X0051464Y0035629D02*
X0003214Y0035629D01*
X0003214Y0035927D02*
X0051464Y0035927D01*
X0051464Y0036226D02*
X0003214Y0036226D01*
X0003214Y0036524D02*
X0051464Y0036524D01*
X0051464Y0036823D02*
X0003214Y0036823D01*
X0003214Y0037121D02*
X0051464Y0037121D01*
X0051464Y0037420D02*
X0003214Y0037420D01*
X0003214Y0037718D02*
X0051464Y0037718D01*
X0051464Y0038017D02*
X0003214Y0038017D01*
X0003214Y0038315D02*
X0051389Y0038315D01*
X0051091Y0038614D02*
X0003214Y0038614D01*
X0003214Y0038912D02*
X0050792Y0038912D01*
X0050494Y0039211D02*
X0003214Y0039211D01*
X0003214Y0039509D02*
X0050195Y0039509D01*
X0049897Y0039808D02*
X0003214Y0039808D01*
X0003214Y0040106D02*
X0049598Y0040106D01*
X0049300Y0040405D02*
X0003214Y0040405D01*
X0003214Y0040703D02*
X0049001Y0040703D01*
X0048703Y0041002D02*
X0003214Y0041002D01*
X0003214Y0041301D02*
X0048404Y0041301D01*
X0048106Y0041599D02*
X0003214Y0041599D01*
X0003214Y0041898D02*
X0047807Y0041898D01*
X0047509Y0042196D02*
X0003214Y0042196D01*
X0003214Y0042495D02*
X0047210Y0042495D01*
X0046912Y0042793D02*
X0003214Y0042793D01*
X0003214Y0043092D02*
X0046613Y0043092D01*
X0046315Y0043390D02*
X0003214Y0043390D01*
X0003214Y0043689D02*
X0046016Y0043689D01*
X0045718Y0043987D02*
X0003214Y0043987D01*
X0003214Y0044286D02*
X0045419Y0044286D01*
X0045121Y0044584D02*
X0003214Y0044584D01*
X0003214Y0044883D02*
X0044822Y0044883D01*
X0044524Y0045181D02*
X0003214Y0045181D01*
X0003214Y0045480D02*
X0043109Y0045480D01*
X0042811Y0045778D02*
X0003214Y0045778D01*
X0003214Y0046077D02*
X0042512Y0046077D01*
X0042214Y0046375D02*
X0003214Y0046375D01*
X0003214Y0046674D02*
X0041925Y0046674D01*
X0041925Y0046972D02*
X0003214Y0046972D01*
X0003214Y0047271D02*
X0041925Y0047271D01*
X0041925Y0047569D02*
X0003214Y0047569D01*
X0003214Y0047868D02*
X0041925Y0047868D01*
X0041925Y0048166D02*
X0003214Y0048166D01*
X0003214Y0048465D02*
X0041954Y0048465D01*
X0042252Y0048763D02*
X0003214Y0048763D01*
X0003214Y0049062D02*
X0042551Y0049062D01*
X0042849Y0049360D02*
X0003214Y0049360D01*
X0003214Y0049659D02*
X0043148Y0049659D01*
X0044980Y0049659D02*
X0059914Y0049659D01*
X0059914Y0049957D02*
X0003214Y0049957D01*
X0003214Y0050256D02*
X0059914Y0050256D01*
X0059914Y0050554D02*
X0003214Y0050554D01*
X0003214Y0050853D02*
X0059914Y0050853D01*
X0059914Y0051151D02*
X0003214Y0051151D01*
X0003214Y0051450D02*
X0059914Y0051450D01*
X0059914Y0051748D02*
X0003214Y0051748D01*
X0003214Y0052047D02*
X0059914Y0052047D01*
X0059914Y0052345D02*
X0003214Y0052345D01*
X0003214Y0052644D02*
X0059914Y0052644D01*
X0059914Y0052942D02*
X0003214Y0052942D01*
X0003214Y0053241D02*
X0059914Y0053241D01*
X0059914Y0053539D02*
X0003214Y0053539D01*
X0003214Y0053838D02*
X0059914Y0053838D01*
X0059914Y0054137D02*
X0003214Y0054137D01*
X0003214Y0054435D02*
X0059914Y0054435D01*
X0059914Y0054734D02*
X0003214Y0054734D01*
X0003214Y0055032D02*
X0059914Y0055032D01*
X0059914Y0055331D02*
X0003214Y0055331D01*
X0003214Y0055629D02*
X0059914Y0055629D01*
X0059914Y0055928D02*
X0003214Y0055928D01*
X0003214Y0056226D02*
X0059914Y0056226D01*
X0059914Y0056525D02*
X0003214Y0056525D01*
X0003214Y0056823D02*
X0059914Y0056823D01*
X0059914Y0057122D02*
X0003214Y0057122D01*
X0003214Y0057420D02*
X0059914Y0057420D01*
X0059914Y0057719D02*
X0003214Y0057719D01*
X0003214Y0058017D02*
X0059914Y0058017D01*
X0059914Y0058316D02*
X0003214Y0058316D01*
X0003214Y0058614D02*
X0059914Y0058614D01*
X0059914Y0058913D02*
X0003214Y0058913D01*
X0003214Y0059211D02*
X0059914Y0059211D01*
X0059914Y0059510D02*
X0003214Y0059510D01*
X0003214Y0059808D02*
X0059914Y0059808D01*
X0059914Y0060107D02*
X0003214Y0060107D01*
X0003214Y0060405D02*
X0059914Y0060405D01*
X0059914Y0060704D02*
X0003214Y0060704D01*
X0003214Y0061002D02*
X0059914Y0061002D01*
X0059914Y0061301D02*
X0003214Y0061301D01*
X0003214Y0061599D02*
X0059914Y0061599D01*
X0059914Y0061898D02*
X0003214Y0061898D01*
X0045279Y0049360D02*
X0059914Y0049360D01*
X0059914Y0049062D02*
X0045577Y0049062D01*
X0045876Y0048763D02*
X0059914Y0048763D01*
X0059914Y0048465D02*
X0046174Y0048465D01*
X0046203Y0048166D02*
X0059914Y0048166D01*
X0059914Y0047868D02*
X0046203Y0047868D01*
X0046203Y0047569D02*
X0059914Y0047569D01*
X0059914Y0047271D02*
X0046252Y0047271D01*
X0046551Y0046972D02*
X0059914Y0046972D01*
X0059914Y0046674D02*
X0046849Y0046674D01*
X0047148Y0046375D02*
X0059914Y0046375D01*
X0059914Y0046077D02*
X0047446Y0046077D01*
X0047745Y0045778D02*
X0059914Y0045778D01*
X0059914Y0045480D02*
X0048043Y0045480D01*
X0048342Y0045181D02*
X0059914Y0045181D01*
X0059914Y0044883D02*
X0048641Y0044883D01*
X0048939Y0044584D02*
X0059914Y0044584D01*
X0059914Y0044286D02*
X0049238Y0044286D01*
X0049536Y0043987D02*
X0059914Y0043987D01*
X0059914Y0043689D02*
X0049835Y0043689D01*
X0050133Y0043390D02*
X0059914Y0043390D01*
X0059914Y0043092D02*
X0050432Y0043092D01*
X0050730Y0042793D02*
X0059914Y0042793D01*
X0059914Y0042495D02*
X0051029Y0042495D01*
X0051327Y0042196D02*
X0059914Y0042196D01*
X0059914Y0041898D02*
X0051626Y0041898D01*
X0051924Y0041599D02*
X0059914Y0041599D01*
X0059914Y0041301D02*
X0052223Y0041301D01*
X0052521Y0041002D02*
X0059914Y0041002D01*
X0059914Y0040703D02*
X0052820Y0040703D01*
X0053118Y0040405D02*
X0059914Y0040405D01*
X0059914Y0040106D02*
X0053417Y0040106D01*
X0053715Y0039808D02*
X0059914Y0039808D01*
X0059914Y0039509D02*
X0054014Y0039509D01*
X0054164Y0039211D02*
X0059914Y0039211D01*
X0059914Y0038912D02*
X0054164Y0038912D01*
X0054164Y0038614D02*
X0059914Y0038614D01*
X0059914Y0038315D02*
X0054164Y0038315D01*
X0054164Y0038017D02*
X0059914Y0038017D01*
X0059914Y0037718D02*
X0054164Y0037718D01*
X0054164Y0037420D02*
X0059914Y0037420D01*
X0059914Y0037121D02*
X0054164Y0037121D01*
X0054164Y0036823D02*
X0059914Y0036823D01*
X0059914Y0036524D02*
X0054164Y0036524D01*
X0054164Y0036226D02*
X0059914Y0036226D01*
X0059914Y0035927D02*
X0054164Y0035927D01*
X0054164Y0035629D02*
X0059914Y0035629D01*
X0059914Y0035330D02*
X0054164Y0035330D01*
X0054164Y0035032D02*
X0059914Y0035032D01*
X0059914Y0034733D02*
X0054164Y0034733D01*
X0054164Y0034435D02*
X0059914Y0034435D01*
X0059914Y0034136D02*
X0054253Y0034136D01*
X0054551Y0033838D02*
X0059914Y0033838D01*
X0059914Y0033539D02*
X0054850Y0033539D01*
X0054953Y0033241D02*
X0059914Y0033241D01*
X0059914Y0032942D02*
X0054953Y0032942D01*
X0054953Y0032644D02*
X0059914Y0032644D01*
X0059914Y0032345D02*
X0054953Y0032345D01*
X0054953Y0032047D02*
X0059914Y0032047D01*
X0059914Y0031748D02*
X0054953Y0031748D01*
X0054739Y0031450D02*
X0059914Y0031450D01*
X0059914Y0031151D02*
X0054440Y0031151D01*
X0054142Y0030853D02*
X0059914Y0030853D01*
X0059914Y0030554D02*
X0053843Y0030554D01*
D11*
X0052814Y0032550D03*
X0041564Y0038800D03*
X0041564Y0043800D03*
X0044064Y0047550D03*
X0049064Y0047550D03*
X0056564Y0053800D03*
X0056564Y0060050D03*
X0050314Y0060050D03*
X0014064Y0056300D03*
X0014064Y0051300D03*
X0014064Y0045050D03*
X0014064Y0040050D03*
X0012814Y0012550D03*
X0009064Y0008800D03*
X0012814Y0005050D03*
X0005314Y0005050D03*
X0005314Y0012550D03*
X0037814Y0012550D03*
X0041564Y0008800D03*
X0045314Y0005050D03*
X0050314Y0005050D03*
X0054064Y0008800D03*
X0057814Y0005050D03*
X0057814Y0012550D03*
X0050314Y0012550D03*
X0045314Y0012550D03*
X0037814Y0005050D03*
D12*
X0052814Y0032550D02*
X0052814Y0038800D01*
X0044064Y0047550D01*
M02*
