G75*
%MOIN*%
%OFA0B0*%
%FSLAX25Y25*%
%IPPOS*%
%LPD*%
%AMOC8*
5,1,8,0,0,1.08239X$1,22.5*
%
%ADD10R,0.02569X0.13592*%
%ADD11R,0.05718X0.13592*%
%ADD12R,0.02962X0.04931*%
%ADD13R,0.15167X0.05324*%
%ADD14R,0.04143X0.06899*%
%ADD15R,0.02175X0.02569*%
%ADD16R,0.10600X0.10600*%
%ADD17R,0.06899X0.07687*%
%ADD18R,0.04931X0.06112*%
%ADD19C,0.03378*%
D10*
X0027302Y0053800D03*
X0038326Y0053800D03*
D11*
X0032814Y0053800D03*
D12*
X0034064Y0031615D03*
X0037804Y0031615D03*
X0030324Y0031615D03*
X0030324Y0020985D03*
X0034064Y0020985D03*
X0037804Y0020985D03*
D13*
X0017814Y0020788D03*
X0017814Y0031812D03*
D14*
X0021416Y0042550D03*
X0021416Y0053800D03*
X0009212Y0053800D03*
X0009212Y0042550D03*
X0034212Y0041300D03*
X0046416Y0041300D03*
D15*
X0045255Y0029450D03*
X0047814Y0029450D03*
X0050373Y0029450D03*
X0050373Y0023150D03*
X0047814Y0023150D03*
X0045255Y0023150D03*
D16*
X0041564Y0008800D03*
X0054064Y0008800D03*
X0009064Y0008800D03*
D17*
X0018070Y0008800D03*
X0032558Y0008800D03*
D18*
X0044369Y0053800D03*
X0044369Y0053800D03*
X0051259Y0053800D03*
X0051259Y0053800D03*
D19*
X0005314Y0005050D03*
X0009064Y0008800D03*
X0012814Y0005050D03*
X0012814Y0012550D03*
X0005314Y0012550D03*
X0014064Y0040050D03*
X0014064Y0045050D03*
X0014064Y0051300D03*
X0014064Y0056300D03*
X0041564Y0043800D03*
X0044064Y0047550D03*
X0049064Y0047550D03*
X0056564Y0053800D03*
X0056564Y0060050D03*
X0050314Y0060050D03*
X0041564Y0038800D03*
X0052814Y0032550D03*
X0050314Y0012550D03*
X0054064Y0008800D03*
X0057814Y0005050D03*
X0057814Y0012550D03*
X0050314Y0005050D03*
X0045314Y0005050D03*
X0041564Y0008800D03*
X0045314Y0012550D03*
X0037814Y0012550D03*
X0037814Y0005050D03*
M02*
