%
M48
M72
T01C0.0138
%
T01
X531Y505
X906Y880
X531Y1255
X1281Y1255
X1281Y505
X3781Y505
X4156Y880
X3781Y1255
X4531Y1255
X5031Y1255
X5406Y880
X5031Y505
X4531Y505
X5781Y505
X5781Y1255
X5281Y3255
X4156Y3880
X4156Y4380
X4406Y4755
X4906Y4755
X5656Y5380
X5656Y6005
X5031Y6005
X1406Y5630
X1406Y5130
X1406Y4505
X1406Y4005
M30
